<svg width="55" height="41" viewBox="0 0 55 41" fill="none" xmlns="http://www.w3.org/2000/svg">
<g id="Logo">
<ellipse id="Ellipse 1" cx="13.75" cy="13.3878" rx="13.75" ry="13.3878" fill="#FCCC25"/>
<g id="Vector">
<path d="M43.8004 40.9522C43.8004 40.9522 52.4747 40.9614 53.6926 32.6977C54.2724 23.6613 45.3074 21.8804 45.3074 21.8804C45.3074 21.8804 46.3273 8.50334 33.7401 6.9779C22.9523 5.90535 19.6696 15.6669 19.6696 15.6669C19.6696 15.6669 16.4199 12.6252 12.012 15.11C8.06614 17.4815 8.76386 21.8238 8.76386 21.8238C8.76386 21.8238 0 23.4823 0 32.179C0.196429 40.865 9.51814 40.9522 9.51814 40.9522" fill="#73A8E8"/>
<path d="M43.8004 40.9522C43.8004 40.9522 52.4747 40.9614 53.6926 32.6977C54.2724 23.6613 45.3074 21.8804 45.3074 21.8804C45.3074 21.8804 46.3273 8.50334 33.7401 6.9779C22.9523 5.90535 19.6696 15.6669 19.6696 15.6669C19.6696 15.6669 16.4199 12.6252 12.012 15.11C8.06614 17.4815 8.76386 21.8238 8.76386 21.8238C8.76386 21.8238 0 23.4823 0 32.179C0.196429 40.865 9.51814 40.9522 9.51814 40.9522" stroke="#73A8E8" stroke-width="0.00064"/>
</g>
</g>
</svg>
